<?xml version="1.0" encoding="UTF-8" standalone="no"?>
<!-- Created with Inkscape (http://www.inkscape.org/) -->

<svg
   width="7mm"
   height="3mm"
   viewBox="0 0 7 3"
   version="1.1"
   id="svg6713"
   inkscape:version="1.2.1 (9c6d41e410, 2022-07-14)"
   sodipodi:docname="ni ke.svg"
   xmlns:inkscape="http://www.inkscape.org/namespaces/inkscape"
   xmlns:sodipodi="http://sodipodi.sourceforge.net/DTD/sodipodi-0.dtd"
   xmlns="http://www.w3.org/2000/svg"
   xmlns:svg="http://www.w3.org/2000/svg">
  <sodipodi:namedview
     id="namedview6715"
     pagecolor="#ffffff"
     bordercolor="#cccccc"
     borderopacity="1"
     inkscape:showpageshadow="0"
     inkscape:pageopacity="0"
     inkscape:pagecheckerboard="0"
     inkscape:deskcolor="#d1d1d1"
     inkscape:document-units="mm"
     showgrid="false"
     inkscape:zoom="7.483165"
     inkscape:cx="28.463892"
     inkscape:cy="30.334758"
     inkscape:window-width="1366"
     inkscape:window-height="705"
     inkscape:window-x="-8"
     inkscape:window-y="-8"
     inkscape:window-maximized="1"
     inkscape:current-layer="layer1" />
  <defs
     id="defs6710">
    <clipPath
       clipPathUnits="userSpaceOnUse"
       id="clipPath34490">
      <path
         style="fill:#000000;stroke:#ffffff;stroke-width:0.038959;stroke-miterlimit:1"
         d="m 83.049938,16.11977 5.456665,15.344802 h 3.273999 l 5.15903,-13.988907 0.297635,-0.297635 4.034633,7.606263 v 6.713352 l 1.1244,-0.03309 0.66141,-0.198422 0.76063,-0.231495 0.7937,-0.429922 0.66141,-0.429916 0.59527,-0.628344 0.39685,-0.959051 0.13228,-1.22362 V 7.660657 h -1.95325 l 2.77107,-3.1101447 0.0586,-4.44525419 -10.38972,10.38972489 0.05366,0.135508 h 6.49986 v 9.809797 h -0.40819 l -2.15138,-4.232592 h -7.483047 l -3.086756,8.465194 -0.257228,0.0117 -3.0082,-8.432549 z"
         id="path34492" />
    </clipPath>
    <clipPath
       clipPathUnits="userSpaceOnUse"
       id="clipPath34494">
      <path
         style="fill:#000000;stroke:#ffffff;stroke-width:0.038959;stroke-miterlimit:1"
         d="M 108.36151,0.32962283 V 4.5739143 l 2.78275,2.8879889 h -1.92922 l 0.0234,20.2626888 0.235,0.912435 0.46299,0.67795 0.44646,0.644883 0.46299,0.281096 1.1244,0.76063 0.61181,0.115742 0.97559,0.264568 0.79369,0.09921 0.34725,-0.198427 0.34724,-0.677945 5.00792,-14.373644 h -4.02213 l -2.888,8.243044 -0.53784,0.0468 -0.19876,-0.491078 -0.28062,-0.654768 V 10.595447 h 6.45412 z"
         id="path34496" />
    </clipPath>
    <clipPath
       clipPathUnits="userSpaceOnUse"
       id="clipPath34554">
      <path
         style="display:block;fill:#000000;stroke:#ffffff;stroke-width:0.096756;stroke-miterlimit:1"
         d="m 548.56087,842.01916 0.0822,5.50286 3.53167,0.57493 1.80691,-0.57493 0.98559,-1.47838 -0.2464,-2.62823 -2.5461,-1.80691 z"
         id="path34556" />
    </clipPath>
    <inkscape:path-effect
       effect="powerclip"
       id="path-effect34558"
       is_visible="true"
       lpeversion="1"
       inverse="true"
       flatten="false"
       hide_clip="false"
       message="Use fill-rule evenodd on &lt;b&gt;fill and stroke&lt;/b&gt; dialog if no flatten result after convert clip to paths." />
    <clipPath
       clipPathUnits="userSpaceOnUse"
       id="clipPath34490-0">
      <path
         style="fill:#000000;stroke:#ffffff;stroke-width:0.038959;stroke-miterlimit:1"
         d="m 83.049938,16.11977 5.456665,15.344802 h 3.273999 l 5.15903,-13.988907 0.297635,-0.297635 4.034633,7.606263 v 6.713352 l 1.1244,-0.03309 0.66141,-0.198422 0.76063,-0.231495 0.7937,-0.429922 0.66141,-0.429916 0.59527,-0.628344 0.39685,-0.959051 0.13228,-1.22362 V 7.660657 h -1.95325 l 2.77107,-3.1101447 0.0586,-4.44525419 -10.38972,10.38972489 0.05366,0.135508 h 6.49986 v 9.809797 h -0.40819 l -2.15138,-4.232592 h -7.483047 l -3.086756,8.465194 -0.257228,0.0117 -3.0082,-8.432549 z"
         id="path34492-8" />
    </clipPath>
    <clipPath
       clipPathUnits="userSpaceOnUse"
       id="clipPath34494-8">
      <path
         style="fill:#000000;stroke:#ffffff;stroke-width:0.038959;stroke-miterlimit:1"
         d="M 108.36151,0.32962283 V 4.5739143 l 2.78275,2.8879889 h -1.92922 l 0.0234,20.2626888 0.235,0.912435 0.46299,0.67795 0.44646,0.644883 0.46299,0.281096 1.1244,0.76063 0.61181,0.115742 0.97559,0.264568 0.79369,0.09921 0.34725,-0.198427 0.34724,-0.677945 5.00792,-14.373644 h -4.02213 l -2.888,8.243044 -0.53784,0.0468 -0.19876,-0.491078 -0.28062,-0.654768 V 10.595447 h 6.45412 z"
         id="path34496-1" />
    </clipPath>
    <clipPath
       clipPathUnits="userSpaceOnUse"
       id="clipPath34554-8">
      <path
         style="display:none;fill:#000000;stroke:#ffffff;stroke-width:0.096756;stroke-miterlimit:1"
         d="m 548.56087,842.01916 0.0822,5.50286 3.53167,0.57493 1.80691,-0.57493 0.98559,-1.47838 -0.2464,-2.62823 -2.5461,-1.80691 z"
         id="path34556-9" />
      <path
         id="lpe_path-effect34558"
         style="fill:#000000;stroke:#ffffff;stroke-width:0.096756;stroke-miterlimit:1"
         class="powerclip"
         d="m 534.24742,828.67747 h 33.57447 v 47.55587 h -33.57447 z m 14.31345,13.34169 0.0822,5.50286 3.53167,0.57493 1.80691,-0.57493 0.98559,-1.47838 -0.2464,-2.62823 -2.5461,-1.80691 z" />
    </clipPath>
    <inkscape:path-effect
       effect="powerclip"
       id="path-effect34558-8"
       is_visible="true"
       lpeversion="1"
       inverse="true"
       flatten="false"
       hide_clip="false"
       message="Use fill-rule evenodd on &lt;b&gt;fill and stroke&lt;/b&gt; dialog if no flatten result after convert clip to paths." />
    <clipPath
       clipPathUnits="userSpaceOnUse"
       id="clipath_lpe_path-effect34558-8">
      <path
         style="display:block;fill:#000000;stroke:#ffffff;stroke-width:0.096756;stroke-miterlimit:1"
         d="m 548.56087,842.01916 0.0822,5.50286 3.53167,0.57493 1.80691,-0.57493 0.98559,-1.47838 -0.2464,-2.62823 -2.5461,-1.80691 z"
         id="path6552" />
    </clipPath>
  </defs>
  <g
     inkscape:label="Layer 1"
     inkscape:groupmode="layer"
     id="layer1">
    <rect
       style="fill:none;stroke:#000000;stroke-width:1;stroke-miterlimit:1;stroke-dasharray:none;stroke-opacity:1"
       id="rect6886"
       width="78.15789"
       height="80.313972"
       x="58.214153"
       y="80.313972" />
    <text
       xml:space="preserve"
       style="font-size:68.9706px;font-family:Arial;-inkscape-font-specification:Arial;text-align:end;text-anchor:end;fill:none;stroke:#000000;stroke-width:1.37941;stroke-miterlimit:1;stroke-dasharray:none;stroke-opacity:1"
       x="113.27049"
       y="145.34567"
       id="text7305"><tspan
         sodipodi:role="line"
         id="tspan7303"
         style="font-weight:bold;font-size:68.9706px;fill:#3200b2;fill-opacity:1;stroke-width:1.37941"
         x="113.27049"
         y="145.34567">1</tspan></text>
    <path
       d="M 1.3505026,0.52141991 C 0.96815561,0.97043871 0.6015567,1.5272624 0.5978807,1.9434671 c -0.0016,0.1566 0.04856,0.29331 0.16847691,0.396858 0.172581,0.149131 0.36273099,0.201718 0.55194899,0.202028 0.276517,3.78e-4 0.551095,-0.111171 0.766088,-0.197191 0.362071,-0.144797 4.364428,-1.88286859 4.364428,-1.88286859 0.03862,-0.019347 0.03138,-0.043455 -0.01693,-0.03142 -0.01949,0.00488 -4.357195,1.18039649 -4.357195,1.18039649 a 0.95851833,0.95851833 0 0 1 -0.252447,0.036141 c -0.333359,0.002 -0.629994,-0.1830669 -0.627597,-0.5729984 8.89e-4,-0.15257509 0.04763,-0.33657059 0.155865,-0.55299269 z"
       id="path5037"
       style="fill:#ffffff;fill-opacity:0.997812;stroke-width:0.0386954" />
  </g>
</svg>
